<?xml version="1.0" encoding="UTF-8" standalone="no"?>
<svg
   version="1.0"
   width="1009.5811pt"
   height="1017.7834pt"
   viewBox="0 0 1009.5811 1017.7834"
   preserveAspectRatio="xMidYMid"
   id="svg2226"
   sodipodi:docname="DALLEcrab.svg"
   inkscape:version="1.2.2 (1:1.2.2+202212051552+b0a8486541)"
   xmlns:inkscape="http://www.inkscape.org/namespaces/inkscape"
   xmlns:sodipodi="http://sodipodi.sourceforge.net/DTD/sodipodi-0.dtd"
   xmlns="http://www.w3.org/2000/svg"
   xmlns:svg="http://www.w3.org/2000/svg">
  <defs
     id="defs2230" />
  <sodipodi:namedview
     id="namedview2228"
     pagecolor="#ffffff"
     bordercolor="#000000"
     borderopacity="0.25"
     inkscape:showpageshadow="2"
     inkscape:pageopacity="0.0"
     inkscape:pagecheckerboard="0"
     inkscape:deskcolor="#d1d1d1"
     inkscape:document-units="pt"
     showgrid="false"
     inkscape:zoom="0.2201077"
     inkscape:cx="109.03753"
     inkscape:cy="683.75617"
     inkscape:window-width="1452"
     inkscape:window-height="752"
     inkscape:window-x="70"
     inkscape:window-y="114"
     inkscape:window-maximized="0"
     inkscape:current-layer="svg2226" />
  <g
     transform="matrix(0.1,0,0,-0.1,-14.418861,1017.7834)"
     fill="#000000"
     stroke="none"
     id="g2224"
     style="fill:#d30000;fill-opacity:1">
    <path
       d="m 1359,10175 c -1,-3 -3,-9 -4,-15 -1,-5 -3,-147 -4,-315 l -1,-305 H 1053 757 l 6,-502 c 4,-277 7,-883 7,-1348 v -845 h 279 c 154,0 282,-3 286,-7 4,-3 7,-145 8,-315 l 2,-308 573,-3 572,-2 -2,-613 -3,-612 -287,-3 -288,-2 v -294 -294 l -28,-4 c -15,-2 -142,-4 -282,-3 h -255 l -3,303 -2,302 H 1050 760 l -2,608 -3,607 H 455 155 l -3,-912 -2,-913 307,-2 308,-3 3,-287 2,-288 h 570 570 v -265 -265 l -567,-2 -568,-3 -3,-297 -2,-298 H 460 c -170,0 -311,-4 -314,-8 -3,-5 -2,-399 1,-875 l 6,-867 h 304 303 l 2,567 3,568 293,3 292,2 v 300 300 h 570 570 l -2,-582 -3,-582 -280,-1 h -280 l -3,-287 -2,-288 h 285 285 V 460 0 h 585 585 v 190 190 h -288 -289 l -7,546 c -3,300 -4,549 -1,554 5,9 4166,10 4378,2 l 87,-3 V 924 370 l -27,-1 c -16,0 -151,-1 -300,0 H 6940 V 185 0 h 590 590 l 2,457 3,458 280,1 c 154,1 283,2 288,3 4,0 6,130 5,289 l -3,287 -287,3 -288,2 v 580 580 l 568,-2 567,-3 3,-297 2,-298 298,-2 297,-3 3,-568 2,-567 h 190 190 v 875 875 h -190 -190 v 305 305 h -305 -305 v 255 255 l 303,2 302,3 3,298 2,297 h 190 190 v 910 910 h -188 -189 l -6,-397 c -4,-219 -7,-496 -7,-615 v -218 h -290 -290 l -2,-297 -3,-298 -282,-3 -283,-2 v 77 c -1,43 -2,112 -4,153 -2,41 -4,141 -5,223 l -1,147 h -285 -285 l -2,403 c -1,415 -1,706 1,791 l 1,49 576,-4 577,-4 v 285 c 0,157 2,300 5,318 l 4,32 h 296 295 l -8,1063 c -4,584 -9,1105 -11,1157 -1,52 -3,179 -3,282 l -1,188 -292,2 -293,3 -3,313 -2,312 H 8100 6940 l -1,-432 c -1,-238 -2,-478 -3,-533 -2,-55 -3,-138 -4,-184 l -2,-84 -291,4 -291,4 v -700 c 1,-385 1,-719 2,-742 v -43 h 290 290 v -310 -310 h 305 305 v -318 -318 l -872,1 c -480,1 -1488,2 -2239,3 l -1367,2 3,288 c 1,158 3,299 4,314 l 1,28 293,2 292,3 v 308 c 0,169 -3,307 -7,307 -5,0 -136,0 -293,0 h -285 v -305 -305 h -853 -854 l -6,548 c -4,301 -7,770 -8,1042 l -1,495 286,3 286,2 v 300 300 l 378,2 c 207,2 464,2 570,0 l 192,-2 v -305 -305 h -290 -290 v -305 -305 h 293 294 l 6,218 c 4,119 7,259 7,310 v 92 l 293,-2 292,-3 -4,-737 -4,-738 154,-1 c 283,-2 444,2 450,12 3,6 5,106 3,222 -2,117 -3,445 -3,730 l -1,517 h -295 -295 v 615 614 l -327,3 c -675,6 -1983,8 -1984,3 z m 7887,-647 c 1,-2 4,-605 6,-1341 l 3,-1337 h -852 -853 v 305 305 h -310 -310 v 740 740 h 305 305 v 302 301 l 852,-6 c 468,-4 852,-8 854,-9 z M 3921,5600 h 388 l -6,-597 c -3,-329 -7,-599 -8,-601 -1,-2 -280,-6 -619,-9 l -616,-6 v 606 607 l 163,3 c 89,2 195,2 236,0 41,-1 249,-3 462,-3 z m 3606,-202 c -4,-112 -7,-384 -7,-605 v -403 h -601 -601 l 6,23 c 3,12 6,284 6,605 v 582 h 602 601 z"
       id="path2212"
       style="fill:#d30000;fill-opacity:1" />
    <path
       d="m 7540,8635 v -305 h 290 290 v 305 305 h -290 -290 z"
       id="path2214"
       style="fill:#d30000;fill-opacity:1" />
    <path
       d="m 3487,5243 c -4,-3 -7,-118 -7,-254 v -248 l 225,-3 225,-3 v 258 257 h -218 c -120,0 -222,-3 -225,-7 z"
       id="path2216"
       style="fill:#d30000;fill-opacity:1" />
    <path
       d="m 6700,5000 v -260 h 215 215 v 260 260 h -215 -215 z"
       id="path2218"
       style="fill:#d30000;fill-opacity:1" />
    <path
       d="m 2490,7871 c 0,-5 9,-7 20,-4 11,3 20,7 20,9 0,2 -9,4 -20,4 -11,0 -20,-4 -20,-9 z"
       id="path2220"
       style="fill:#d30000;fill-opacity:1" />
  </g>
</svg>
